<svg width="300" height="201" viewBox="0 0 300 201" fill="none" xmlns="http://www.w3.org/2000/svg">
<path d="M168 200.5H279C282.542 200.5 285.932 199.256 289 197.5C292.068 195.744 295.23 193.541 297 190.5C298.77 187.459 300.002 184.01 300 180.499C299.998 176.988 298.773 173.54 297 170.501L222 41.5C220.23 38.46 218.067 36.2552 215 34.5C211.933 32.7448 207.542 31.5 204 31.5C200.458 31.5 197.067 32.7448 194 34.5C190.933 36.2552 188.77 38.46 187 41.5L168 74.5L130 10.4976C128.228 7.45784 126.068 4.25491 123 2.5C119.932 0.745087 116.542 0.5 113 0.5C109.458 0.5 106.068 0.745087 103 2.5C99.9323 4.25491 96.7717 7.45784 95 10.4976L2 170.501C0.226979 173.54 0.00154312 176.988 1.90993e-06 180.499C-0.0015393 184.01 0.229648 187.459 2 190.5C3.77035 193.54 6.93245 195.744 10 197.5C13.0675 199.256 16.4578 200.5 20 200.5H90C117.737 200.5 137.925 188.058 152 164.5L186 105.5L204 74.5L259 168.5H186L168 200.5ZM89 168.5H40L113 42.5L150 105.5L125.491 148.225C116.144 163.51 105.488 168.5 89 168.5Z" fill="#00DC82"/>
</svg>
